<svg width="24" height="25" viewBox="0 0 24 25" fill="none" xmlns="http://www.w3.org/2000/svg">
<path fill-rule="evenodd" clip-rule="evenodd" d="M3 5.75C3 5.33579 3.33579 5 3.75 5H20.25C20.6642 5 21 5.33579 21 5.75C21 6.16421 20.6642 6.5 20.25 6.5H3.75C3.33579 6.5 3 6.16421 3 5.75ZM3 10.25C3 9.83579 3.33579 9.5 3.75 9.5H20.25C20.6642 9.5 21 9.83579 21 10.25C21 10.6642 20.6642 11 20.25 11H3.75C3.33579 11 3 10.6642 3 10.25ZM3 14.75C3 14.3358 3.33579 14 3.75 14H20.25C20.6642 14 21 14.3358 21 14.75C21 15.1642 20.6642 15.5 20.25 15.5H3.75C3.33579 15.5 3 15.1642 3 14.75ZM3 19.25C3 18.8358 3.33579 18.5 3.75 18.5H20.25C20.6642 18.5 21 18.8358 21 19.25C21 19.6642 20.6642 20 20.25 20H3.75C3.33579 20 3 19.6642 3 19.25Z" fill="white"/>
</svg>
