<svg width="28" height="28" viewBox="0 0 28 28" fill="none" xmlns="http://www.w3.org/2000/svg">
<path d="M23.8817 2.33334H4.11832C3.89616 2.33025 3.67557 2.37096 3.46915 2.45314C3.26272 2.53531 3.07451 2.65735 2.91525 2.81227C2.75599 2.96719 2.62882 3.15197 2.54098 3.35605C2.45314 3.56013 2.40636 3.77951 2.40332 4.00167V23.9983C2.40636 24.2205 2.45314 24.4399 2.54098 24.644C2.62882 24.848 2.75599 25.0328 2.91525 25.1877C3.07451 25.3427 3.26272 25.4647 3.46915 25.5469C3.67557 25.629 3.89616 25.6698 4.11832 25.6667H23.8817C24.1038 25.6698 24.3244 25.629 24.5308 25.5469C24.7373 25.4647 24.9255 25.3427 25.0847 25.1877C25.244 25.0328 25.3712 24.848 25.459 24.644C25.5468 24.4399 25.5936 24.2205 25.5967 23.9983V4.00167C25.5936 3.77951 25.5468 3.56013 25.459 3.35605C25.3712 3.15197 25.244 2.96719 25.0847 2.81227C24.9255 2.65735 24.7373 2.53531 24.5308 2.45314C24.3244 2.37096 24.1038 2.33025 23.8817 2.33334V2.33334ZM9.43832 21.8633H5.93832V11.3633H9.43832V21.8633ZM7.68832 9.89334C7.20563 9.89334 6.7427 9.70159 6.40139 9.36027C6.06007 9.01896 5.86832 8.55603 5.86832 8.07334C5.86832 7.59064 6.06007 7.12772 6.40139 6.7864C6.7427 6.44509 7.20563 6.25334 7.68832 6.25334C7.94463 6.22427 8.20419 6.24967 8.45001 6.32787C8.69582 6.40607 8.92235 6.53531 9.11475 6.70713C9.30716 6.87894 9.4611 7.08946 9.5665 7.3249C9.67191 7.56034 9.72639 7.81538 9.72639 8.07334C9.72639 8.33129 9.67191 8.58634 9.5665 8.82178C9.4611 9.05721 9.30716 9.26773 9.11475 9.43955C8.92235 9.61137 8.69582 9.74061 8.45001 9.81881C8.20419 9.89701 7.94463 9.92241 7.68832 9.89334V9.89334ZM22.0617 21.8633H18.5617V16.2283C18.5617 14.8167 18.06 13.895 16.7883 13.895C16.3948 13.8979 16.0115 14.0213 15.6903 14.2487C15.3691 14.4761 15.1252 14.7965 14.9917 15.1667C14.9004 15.4409 14.8608 15.7297 14.875 16.0183V21.8517H11.375C11.375 21.8517 11.375 12.3083 11.375 11.3517H14.875V12.8333C15.1929 12.2816 15.6554 11.8271 16.2125 11.5187C16.7696 11.2104 17.4003 11.0598 18.0367 11.0833C20.37 11.0833 22.0617 12.5883 22.0617 15.82V21.8633Z" fill="white"/>
</svg>
