<svg width="136" height="50" viewBox="0 0 136 50" fill="none" xmlns="http://www.w3.org/2000/svg">
<path d="M37.2557 15.0355L30.7518 29.1135H43.7245L37.2557 15.0355ZM0.939331 48.9007L26.287 1.24113H48.1893L73.537 48.9007H52.7948L49.0682 40.7447H25.4081L21.6815 48.9007H0.939331Z" fill="white"/>
<path d="M102.822 0C120.611 0 135.06 5.24823 135.06 23.2624V26.7376C135.131 44.7518 120.576 49.9645 102.822 50C85.0331 49.9645 70.4784 44.7518 70.5487 26.7376V23.2624C70.4784 5.21277 85.0331 0.035461 102.822 0ZM116.639 25.5674V24.3972C116.744 16.6312 110.346 15.2128 102.822 15.1064C95.2635 15.2128 88.8651 16.6312 88.9706 24.3972V25.5674C88.8651 33.3688 95.2635 34.7872 102.822 34.8936C110.346 34.7872 116.744 33.3688 116.639 25.5674Z" fill="white"/>
</svg>
