<svg width="122" height="116" viewBox="0 0 122 116" fill="none" xmlns="http://www.w3.org/2000/svg">
<rect width="122" height="116" rx="16" fill="white"/>
<path d="M50.3333 89C56.0527 89 60.6667 84.386 60.6667 78.6666V68.3333H50.3333C44.614 68.3333 40 72.9473 40 78.6666C40 84.386 44.614 89 50.3333 89Z" fill="#0ACF83"/>
<path d="M40 58C40 52.2806 44.614 47.6667 50.3333 47.6667H60.6667V68.3334H50.3333C44.614 68.3334 40 63.7194 40 58Z" fill="#A259FF"/>
<path d="M40 37.3333C40 31.614 44.614 27 50.3333 27H60.6667V47.6667H50.3333C44.614 47.6667 40 43.0527 40 37.3333Z" fill="#F24E1E"/>
<path d="M60.6666 27H71C76.7193 27 81.3333 31.614 81.3333 37.3333C81.3333 43.0527 76.7193 47.6667 71 47.6667H60.6666V27Z" fill="#FF7262"/>
<path d="M81.3333 58C81.3333 63.7194 76.7193 68.3334 71 68.3334C65.2806 68.3334 60.6666 63.7194 60.6666 58C60.6666 52.2806 65.2806 47.6667 71 47.6667C76.7193 47.6667 81.3333 52.2806 81.3333 58Z" fill="#1ABCFE"/>
</svg>
