<svg width="126" height="116" viewBox="0 0 126 116" fill="none" xmlns="http://www.w3.org/2000/svg">
<rect width="126" height="116" rx="16" fill="white"/>
<path d="M30 25H95.9995V91H30V25Z" fill="#F0DB4F"/>
<path d="M90.5981 75.2588C90.1146 72.2479 88.1513 69.7188 82.3355 67.3606C80.3152 66.4321 78.0629 65.7673 77.3917 64.2363C77.1534 63.3453 77.1218 62.8433 77.2726 62.304C77.7054 60.5536 79.7948 60.008 81.4508 60.5099C82.5174 60.8673 83.527 61.6893 84.1359 63.0005C86.984 61.1562 86.9782 61.1684 88.9669 59.9009C88.2388 58.7722 87.8502 58.2513 87.3736 57.7683C85.6607 55.855 83.3267 54.8697 79.5939 54.9451L77.6496 55.1965C75.7864 55.6674 74.0107 56.6453 72.9694 57.9565C69.8451 61.5016 70.7361 67.7059 74.5379 70.2592C78.2833 73.0703 83.7853 73.7099 84.4881 76.3386C85.1719 79.5567 82.123 80.5985 79.0926 80.2284C76.8593 79.7639 75.6171 78.6288 74.2743 76.5648C71.8027 77.9951 71.8027 77.9951 69.2615 79.4566C69.8641 80.7741 70.4973 81.3704 71.5075 82.5118C76.2883 87.3612 88.2519 87.1229 90.3977 79.7829C90.4847 79.5309 91.0626 77.8501 90.5981 75.2588ZM65.8794 55.3336H59.7062L59.6809 71.2936C59.6809 74.6879 59.8564 77.7995 59.3044 78.7532C58.4013 80.6291 56.061 80.3966 54.9944 80.0328C53.9089 79.4993 53.3569 78.7406 52.7173 77.6682C52.5418 77.3603 52.41 77.122 52.3657 77.1036L47.3466 80.1773C48.1811 81.8902 49.4106 83.377 50.9854 84.3428C53.3379 85.7547 56.4996 86.1876 59.8063 85.4284C61.9585 84.8015 63.8153 83.503 64.7875 81.5264C66.1931 78.9351 65.8915 75.7987 65.8789 72.3296C65.9105 66.6699 65.8794 61.0113 65.8794 55.3336Z" fill="#323330"/>
</svg>
