<svg width="131" height="116" viewBox="0 0 131 116" fill="none" xmlns="http://www.w3.org/2000/svg">
<rect width="131" height="116" rx="16" fill="white"/>
<path d="M86.274 24H44.5205C40.9041 24 38 26.9041 38 30.5205V85.4795C38 89.0959 40.9041 92 44.5205 92H86.3288C89.9452 92 92.8493 89.0959 92.8493 85.4795V30.5205C92.7945 26.9041 89.8904 24 86.274 24ZM50.6027 82.4658V67.0137L58.3288 74.7397L50.6027 82.4658ZM79.6438 82.6301H72.4658L72.5205 82.5205V55.4521C72.5205 55.4521 74.2192 48.9863 50.7671 58.0822C50.7123 58.1918 50.6575 33.0411 50.6575 33.0411L58.274 32.9863V49.0959C58.274 49.0959 79.6438 40.6575 79.6438 55.5068V82.6301ZM76.7945 42.6301H68.6849C71.589 39.3425 74.274 33.3151 74.274 33.3151H82.6575C82.6575 33.3151 81.2329 37.1507 76.7945 42.6301Z" fill="#6762A6"/>
</svg>
