<svg width="251" height="116" viewBox="0 0 251 116" fill="none" xmlns="http://www.w3.org/2000/svg">
<rect width="251" height="116" rx="16" fill="white"/>
<path d="M203.439 68.9757H196.388V65.3836H210.357V57.5344H197.053C193.594 57.5344 188.938 60.3282 188.938 65.6497V68.3105C188.938 73.632 193.461 76.2927 197.053 76.2927H203.705V80.0178L189.337 80.1508V88H203.439C206.366 88 211.288 85.8714 211.421 80.0178V76.9579C211.421 71.9025 207.297 68.9757 203.439 68.9757ZM121.488 67.7783C121.488 58.0666 112.308 57.1353 112.308 57.1353H95.9446V87.867H104.193V80.5499L111.377 88H123.616L113.905 78.1553C113.905 78.1553 121.488 77.4901 121.488 67.7783ZM110.712 71.9025H104.06V64.8515H110.712C110.712 64.8515 112.574 65.5167 112.574 68.3105C112.574 71.2373 110.712 71.9025 110.712 71.9025ZM141.843 57.4014H133.461C127.475 57.4014 125.479 62.8559 125.479 65.3836V87.867H133.86V82.5455H141.71V87.867H149.825V65.3836C149.825 58.8648 143.971 57.4014 141.843 57.4014ZM141.71 73.765H133.727V66.3149C133.727 66.3149 133.727 64.5854 136.388 64.5854H139.315C141.577 64.5854 141.71 66.3149 141.71 66.3149V73.765ZM153.683 57.4014H162.463V87.867H153.683V57.4014ZM174.703 57.4014H166.055V87.867H186.41V80.0178H174.703V57.4014Z" fill="#CC0000"/>
<path d="M137.186 53.5433C137.984 52.8781 138.65 52.3459 138.65 52.3459C138.65 52.3459 116.299 29.9956 91.2883 32.5233C78.7828 33.5876 63.3504 45.0289 54.3038 60.0621C45.2573 75.0954 44.0599 87.867 44.0599 87.867H78.1176C78.1176 87.867 71.5987 58.1996 93.1508 46.2262C97.8071 43.9646 112.84 35.4502 137.186 53.5433ZM114.969 31.9912C114.57 31.7251 113.506 31.193 110.845 30.5278L110.712 33.3216C112.175 33.8537 113.506 34.3859 114.836 34.918L114.969 31.9912Z" fill="#CC0000"/>
<path d="M114.969 47.1574L115.102 44.4967C113.639 44.2306 112.175 44.0976 110.845 43.9645L110.712 46.6253C112.175 46.6253 113.506 46.8913 114.969 47.1574ZM94.8802 30.6608H95.2794L94.4811 28C93.1507 28 91.8204 28.133 90.357 28.2661L91.1552 30.7938C92.3525 30.6608 93.5499 30.6608 94.8802 30.6608ZM97.8071 49.4191C99.0044 48.7539 100.335 48.3548 101.532 47.9556L100.601 45.1619C99.2705 45.4279 97.9401 45.9601 96.8758 46.4922L97.8071 49.4191ZM77.3193 35.184L75.3237 32.2572C74.3924 32.6563 73.1951 33.3215 72.1308 33.9867L74.1264 37.0466C75.1907 36.3814 76.255 35.7162 77.3193 35.184ZM86.2328 54.4745L88.3614 57.5344C89.1596 56.4701 89.9578 55.4058 90.8891 54.4745L88.8935 51.5477C87.8292 52.4789 87.031 53.5432 86.2328 54.4745ZM81.3104 63.6541C80.6452 65.2505 80.2461 66.847 79.98 68.3104L83.439 71.1042C83.572 69.3747 83.9712 67.7782 84.3703 66.0488L81.3104 63.6541ZM61.0887 47.9556L58.0288 45.2949C56.9645 46.3592 55.7672 47.4235 54.8359 48.4878L58.1619 51.2816C59.0931 50.0842 60.0244 49.0199 61.0887 47.9556ZM48.051 67.1131L43.1286 65.2505C42.3304 67.1131 41.3991 69.2417 41 70.439L45.9224 72.3015C46.4545 70.8381 47.3858 68.7095 48.051 67.1131ZM79.3148 79.2195C79.4479 81.4811 79.5809 83.3436 79.847 84.674L85.0355 86.5366C84.6363 84.8071 84.2372 82.9445 83.9712 80.949L79.3148 79.2195Z" fill="#CC0000"/>
</svg>
