<svg width="275" height="116" viewBox="0 0 275 116" fill="none" xmlns="http://www.w3.org/2000/svg">
<rect width="275" height="116" rx="16" fill="white"/>
<path d="M65.8738 29.752C66.445 30.4578 66.7373 31.4193 67.3218 33.3324L80.0491 75.1809C75.2673 72.6997 70.1358 70.9605 64.8309 70.0229L56.5392 41.9993C56.4743 41.7759 56.339 41.5793 56.1536 41.4387C55.9681 41.2981 55.7423 41.221 55.5096 41.2188C55.2753 41.2191 55.0473 41.2953 54.8599 41.436C54.6725 41.5767 54.5357 41.7744 54.47 41.9993L46.283 70.0096C40.9545 70.9393 35.8002 72.6812 31 75.1742L43.787 33.3257C44.3699 31.4126 44.6672 30.4578 45.2401 29.7454C45.7442 29.123 46.3978 28.6385 47.1399 28.3371C47.9902 28 48.9882 28 50.9876 28H60.1212C62.1257 28 63.1237 28 63.9673 28.3371C64.7146 28.636 65.3689 29.1226 65.8738 29.752Z" fill="black"/>
<path d="M67.3982 77.1704C65.2974 78.9672 61.1126 80.1928 56.2867 80.1928C50.3648 80.1928 45.4011 78.3511 44.0842 75.8668C43.6109 77.2883 43.508 78.9158 43.508 79.9537C43.508 79.9537 43.1958 85.0585 46.7446 88.614C46.7446 86.7707 48.2425 85.2727 50.0792 85.2727C53.2377 85.2727 53.2377 88.0294 53.2311 90.268V90.4689C53.2314 92.0804 53.709 93.6557 54.6036 94.996C55.4983 96.3363 56.7698 97.3816 58.2579 98C57.8023 97.0647 57.5655 96.0379 57.5654 94.9975C57.5654 91.7593 59.4652 90.5536 61.6706 89.152C63.4292 88.0361 65.3821 86.7972 66.7306 84.3129C67.4314 83.0226 67.8266 81.5363 67.8266 79.9537C67.8266 78.9872 67.6771 78.0539 67.3982 77.1704Z" fill="#FF5D01"/>
<path d="M109.272 74.5316C114.597 74.5316 118.595 72.6301 120.229 69.4068C120.229 70.9429 120.332 72.5255 120.586 73.7577H129.342C128.934 71.9692 128.728 69.5098 128.728 66.2798V58.385C128.728 50.9054 124.322 47.3699 114.546 47.3699C105.997 47.3699 100.261 50.9054 99.6 56.6978H108.707C109.019 54.1885 111.115 52.8052 114.546 52.8052C117.925 52.8052 119.82 54.1885 119.82 57.0565V57.827L110.557 58.6441C106.048 59.1041 103.493 59.8763 101.696 61.1019C99.8026 62.3872 98.8278 64.3335 98.8278 66.7398C98.8278 71.554 102.823 74.5249 109.273 74.5249L109.272 74.5316ZM112.651 69.1992C109.68 69.1992 107.89 68.0185 107.89 66.1237C107.89 64.1774 109.376 63.1511 113.113 62.6928L119.976 61.972V63.5164C119.976 66.9474 117.002 69.1992 112.651 69.1992ZM147.806 74.5316C156.718 74.5316 161.272 71.197 161.272 65.8181C161.272 61.3626 158.714 58.9031 152.513 58.0795L144.788 57.2109C142.583 56.8987 141.661 56.3408 141.661 55.1085C141.661 53.6239 143.147 52.9547 146.527 52.9547C151.185 52.9547 154.408 54.0324 157.022 56.1332L161.167 51.9815C158.307 49.0106 153.337 47.3699 147.194 47.3699C138.542 47.3699 133.726 50.4504 133.726 55.6217C133.726 60.1304 136.699 62.6396 142.843 63.4633L149.802 64.282C152.567 64.6374 153.389 65.1505 153.389 66.4807C153.389 68.0185 151.853 68.8422 148.266 68.8422C142.946 68.8422 139.358 67.4074 136.951 64.742L132.242 68.6346C135.369 72.5255 140.688 74.5299 147.804 74.5299L147.806 74.5316ZM168.497 53.9345V64.742C168.497 71.0924 172.084 74.324 179.765 74.324C182.12 74.324 183.963 74.0633 185.702 73.5518V66.8959C184.544 67.1644 183.361 67.3014 182.173 67.3044C178.941 67.3044 177.359 65.8713 177.359 62.8472V53.9345H185.753V48.1421H177.359V38.7677L168.497 42.0442V48.1421H162.763V53.9345H168.497ZM198.467 48.1421H190.38V73.7594H199.233V64.1774C199.233 61.4141 199.849 58.9031 201.541 57.3139C202.873 56.0817 204.766 55.4207 207.426 55.4207C208.4 55.4207 209.17 55.5171 210.04 55.62V47.5775C209.476 47.4745 209.067 47.4745 208.346 47.4745C203.281 47.4745 199.849 50.3989 198.467 55.16V48.1421ZM227.542 74.5316C236.908 74.5316 243.512 69.5546 243.512 60.9009C243.512 52.2937 236.91 47.3699 227.542 47.3699C218.123 47.3699 211.52 52.2937 211.52 60.9009C211.52 69.5546 218.123 74.5316 227.542 74.5316ZM227.542 68.6346C223.241 68.6346 220.529 65.8713 220.529 60.9009C220.529 55.9256 223.241 53.2669 227.542 53.2669C231.791 53.2669 234.502 55.9256 234.502 60.9009C234.502 65.8713 231.791 68.6346 227.542 68.6346Z" fill="black"/>
</svg>
