<svg width="222" height="116" viewBox="0 0 222 116" fill="none" xmlns="http://www.w3.org/2000/svg">
<rect width="222" height="116" rx="16" fill="white"/>
<path d="M169.852 62.0864C169.792 62.0864 169.732 62.1044 169.681 62.1383L166.914 63.7545C166.862 63.7867 166.819 63.832 166.79 63.8857C166.76 63.9395 166.745 64 166.746 64.0612V67.2935C166.746 67.4304 166.811 67.5342 166.914 67.6026L169.681 69.2164C169.732 69.2501 169.792 69.268 169.852 69.268C169.913 69.268 169.973 69.2501 170.023 69.2164L172.786 67.6026C172.839 67.5698 172.882 67.524 172.912 67.4697C172.942 67.4154 172.958 67.3543 172.957 67.2923V64.0636C172.958 64.002 172.942 63.9415 172.912 63.8877C172.882 63.834 172.839 63.7889 172.786 63.7568L170.022 62.1395C169.972 62.1058 169.913 62.0866 169.852 62.0864Z" fill="#5FA04E"/>
<path d="M136.537 26C136.392 25.9985 136.249 26.0346 136.122 26.105C135.99 26.182 135.88 26.2916 135.802 26.4234C135.725 26.5553 135.682 26.7048 135.68 26.8577V49.1878C135.68 49.393 135.573 49.6007 135.369 49.7375C135.275 49.7882 135.17 49.8147 135.063 49.8147C134.956 49.8147 134.85 49.7882 134.756 49.7375L131.139 47.6436C130.874 47.4915 130.573 47.4114 130.267 47.4114C129.961 47.4114 129.661 47.4915 129.395 47.6436L114.923 56.0606C114.655 56.2116 114.432 56.4306 114.276 56.6956C114.12 56.9605 114.037 57.2619 114.035 57.5694V74.368C114.035 74.9861 114.377 75.5712 114.923 75.8803L129.398 84.2973C129.663 84.4492 129.963 84.5291 130.269 84.5291C130.575 84.5291 130.875 84.4492 131.14 84.2973L145.614 75.8803C146.16 75.5712 146.502 74.9861 146.502 74.368V32.493C146.502 31.8406 146.16 31.2543 145.614 30.9464L136.978 26.105C136.842 26.0364 136.69 26.0005 136.537 26ZM51.1463 46.9582C50.8738 46.9582 50.6013 47.0573 50.363 47.1941L35.8883 55.5804C35.6166 55.7355 35.391 55.9602 35.2349 56.2314C35.0787 56.5026 34.9977 56.8105 35.0001 57.1235L35.0354 79.6576C35.0354 79.9679 35.2041 80.277 35.4778 80.415C35.6045 80.4988 35.753 80.5435 35.9049 80.5435C36.0567 80.5435 36.2053 80.4988 36.3319 80.415L44.9365 75.4686C45.4827 75.1595 45.8212 74.5744 45.8212 73.9563V63.41C45.8212 62.7918 46.1633 62.2067 46.7107 61.8976L50.363 59.7683C50.6355 59.5961 50.9446 59.5276 51.2513 59.5276C51.558 59.5276 51.8659 59.5961 52.1054 59.7683L55.7576 61.8976C56.3038 62.2067 56.6459 62.7918 56.6459 63.41V73.9563C56.6459 74.5744 56.9857 75.1595 57.5307 75.4686L66.0668 80.415C66.1997 80.4991 66.3537 80.5437 66.511 80.5437C66.6682 80.5437 66.8223 80.4991 66.9551 80.415C67.0907 80.3407 67.2035 80.231 67.2816 80.0977C67.3597 79.9643 67.4002 79.8122 67.3987 79.6576V57.1235C67.3987 56.5053 67.0566 55.9202 66.5092 55.6099L52.07 47.1941C51.8272 47.064 51.5609 46.9834 51.2867 46.957L51.1463 46.9582ZM169.901 47.2059C169.602 47.2059 169.306 47.2838 169.033 47.4395L154.556 55.8518C154.009 56.1608 153.671 56.746 153.671 57.3653V74.1639C153.671 74.782 154.009 75.3672 154.556 75.6762L168.929 83.9186C169.188 84.0704 169.482 84.1505 169.782 84.1505C170.082 84.1505 170.377 84.0704 170.636 83.9186L179.342 79.043C179.477 78.9686 179.59 78.8588 179.668 78.7255C179.745 78.5921 179.786 78.4401 179.784 78.2857C179.785 78.1316 179.745 77.9801 179.667 77.8472C179.589 77.7143 179.477 77.6049 179.342 77.5307L164.8 69.1125C164.668 69.0348 164.557 68.9245 164.48 68.7921C164.403 68.6597 164.36 68.5097 164.357 68.3563V63.0997C164.356 62.9456 164.396 62.7939 164.474 62.6609C164.552 62.5279 164.665 62.4186 164.8 62.3447L169.342 59.7329C169.475 59.6489 169.629 59.6044 169.786 59.6044C169.943 59.6044 170.097 59.6489 170.23 59.7329L174.767 62.3435C174.9 62.4209 175.01 62.5311 175.089 62.6635C175.167 62.7959 175.209 62.9461 175.213 63.0997V67.2227C175.213 67.5329 175.383 67.842 175.655 67.9788C175.788 68.0632 175.943 68.108 176.1 68.108C176.257 68.108 176.412 68.0632 176.545 67.9788L185.146 62.9298C185.41 62.7759 185.628 62.5546 185.778 62.2887C185.928 62.0227 186.004 61.7216 186 61.4163V57.3287C186 56.7106 185.658 56.129 185.146 55.8187L170.773 47.4383C170.507 47.2866 170.207 47.2061 169.902 47.2047L169.901 47.2059ZM130.267 59.7506C130.344 59.7506 130.422 59.7683 130.491 59.8037L135.439 62.6892C135.576 62.7576 135.645 62.9275 135.645 63.0655V68.8365C135.645 69.0087 135.576 69.1479 135.439 69.2163L130.49 72.1018C130.421 72.1357 130.344 72.1533 130.267 72.1533C130.19 72.1533 130.114 72.1357 130.044 72.1018L125.095 69.2163C124.959 69.1479 124.889 68.9745 124.889 68.8365V63.0655C124.889 62.8933 124.96 62.7576 125.095 62.688L130.044 59.8037C130.114 59.7688 130.189 59.7507 130.267 59.7506Z" fill="#333333"/>
<path d="M91.6033 47.5044C91.3383 47.3525 91.0382 47.2726 90.7327 47.2726C90.4273 47.2726 90.1271 47.3525 89.8621 47.5044L75.4889 55.853C75.2252 56.0063 75.0071 56.2271 74.8569 56.4927C74.7068 56.7583 74.6302 57.0591 74.6348 57.3641V74.0931C74.6348 74.7125 74.9769 75.2964 75.4889 75.6055L89.8621 83.9529C90.1271 84.1048 90.4273 84.1847 90.7327 84.1847C91.0382 84.1847 91.3383 84.1048 91.6033 83.9529L105.975 75.6055C106.522 75.2964 106.829 74.7125 106.829 74.0931V57.3641C106.829 56.746 106.487 56.1609 105.975 55.853L91.6033 47.5044Z" fill="url(#paint0_linear_205_532)"/>
<path d="M106.01 55.8529L91.5691 47.5044C91.4274 47.4325 91.2788 47.3752 91.1256 47.3333L74.9427 75.1926C75.0796 75.3648 75.2495 75.5016 75.4205 75.6054L89.8621 83.9528C90.2715 84.1935 90.7492 84.2619 91.1928 84.1239L106.386 56.162C106.286 56.0314 106.157 55.9256 106.01 55.8529Z" fill="url(#paint1_linear_205_532)"/>
<path d="M106.009 75.6043C106.42 75.3636 106.727 74.9519 106.864 74.5048L91.0559 47.2979C90.6477 47.2295 90.203 47.2637 89.8279 47.5044L75.4889 55.8176L90.9545 84.1923C91.1585 84.1581 91.398 84.0897 91.6033 83.9859L106.009 75.6043Z" fill="url(#paint2_linear_205_532)"/>
<defs>
<linearGradient id="paint0_linear_205_532" x1="96.5856" y1="53.721" x2="83.4594" y2="80.3319" gradientUnits="userSpaceOnUse">
<stop stop-color="#3F873F"/>
<stop offset="0.33" stop-color="#3F8B3D"/>
<stop offset="0.637" stop-color="#3E9638"/>
<stop offset="0.934" stop-color="#3DA92E"/>
<stop offset="1" stop-color="#3DAE2B"/>
</linearGradient>
<linearGradient id="paint1_linear_205_532" x1="88.5486" y1="67.6822" x2="125.172" y2="40.7893" gradientUnits="userSpaceOnUse">
<stop offset="0.138" stop-color="#3F873F"/>
<stop offset="0.402" stop-color="#52A044"/>
<stop offset="0.713" stop-color="#64B749"/>
<stop offset="0.908" stop-color="#6ABF4B"/>
</linearGradient>
<linearGradient id="paint2_linear_205_532" x1="74.109" y1="65.7229" x2="107.367" y2="65.7229" gradientUnits="userSpaceOnUse">
<stop offset="0.092" stop-color="#6ABF4B"/>
<stop offset="0.287" stop-color="#64B749"/>
<stop offset="0.598" stop-color="#52A044"/>
<stop offset="0.862" stop-color="#3F873F"/>
</linearGradient>
</defs>
</svg>
