<svg width="303" height="116" viewBox="0 0 303 116" fill="none" xmlns="http://www.w3.org/2000/svg">
<rect width="303" height="116" rx="16" fill="white"/>
<path d="M151.256 45.9996C142.393 45.9996 136.004 51.8494 136.004 60.6234C136.004 69.3973 143.189 75.249 152.06 75.249C157.414 75.249 162.135 73.1037 165.058 69.4892L158.916 65.8982C157.295 67.6937 154.83 68.7411 152.06 68.7411C148.214 68.7411 144.947 66.7094 143.734 63.4591H166.23C166.415 62.5229 166.509 61.5708 166.511 60.6162C166.511 51.8494 160.129 45.9996 151.256 45.9996ZM143.67 57.7805C144.673 54.5391 147.42 52.4984 151.258 52.4984C155.102 52.4984 157.849 54.5391 158.845 57.7805H143.67ZM141.855 37.0616L119.609 76.062L97.3559 37.0598H105.697L119.602 61.4346L133.506 37.0598L141.855 37.0616ZM66.6649 33L96.3281 85H37L66.6649 33ZM198.784 60.6252C198.784 65.4998 201.931 68.7501 206.812 68.7501C210.12 68.7501 212.601 67.2304 213.876 64.7516L220.043 68.3517C217.489 72.6567 212.704 75.249 206.812 75.249C197.941 75.249 191.559 69.3991 191.559 60.6252C191.559 51.8494 197.948 45.9996 206.812 45.9996C212.704 45.9996 217.482 48.5919 220.043 52.8968L213.876 56.4969C212.601 54.0181 210.12 52.4984 206.812 52.4984C201.938 52.4984 198.784 55.7488 198.784 60.6252ZM265 37.0598V74.4341H257.775V37.0616L265 37.0598ZM237.704 45.9977C228.841 45.9977 222.451 51.8476 222.451 60.6216C222.451 69.3955 229.644 75.2472 238.507 75.2472C243.862 75.2472 248.582 73.1019 251.505 69.4874L245.363 65.8964C243.743 67.6919 241.277 68.7393 238.506 68.7393C234.662 68.7393 231.395 66.7076 230.182 63.4573H252.677C252.861 62.5211 252.955 61.5689 252.957 60.6144C252.957 51.8476 246.575 45.9977 237.704 45.9977ZM230.116 57.7787C231.121 54.5373 233.858 52.4966 237.704 52.4966C241.55 52.4966 244.295 54.5373 245.292 57.7787H230.116ZM189.149 46.809V54.6833C188.316 54.428 187.451 54.2939 186.58 54.2849C181.917 54.2849 178.552 57.5353 178.552 62.4099V74.4341H171.328V46.8126H178.552V54.2885C178.552 50.1603 183.298 46.8126 189.151 46.8126L189.149 46.809Z" fill="black"/>
</svg>
