<svg width="126" height="116" viewBox="0 0 126 116" fill="none" xmlns="http://www.w3.org/2000/svg">
<rect width="126" height="116" rx="16" fill="white"/>
<path fill-rule="evenodd" clip-rule="evenodd" d="M62.943 93C82.1953 92.9707 97.7803 77.3099 97.7803 57.9918C97.7803 38.9877 82.2672 23.3365 63.7338 23.0056C44.2697 22.6585 28.0051 38.4524 28 57.6048C27.9944 77.3088 43.5097 93.028 62.943 93ZM62.8862 24.7003C81.3702 24.6941 96.0975 39.7118 96.0919 58.5597C96.0857 76.3539 80.968 91.2396 62.8997 91.2435C44.4922 91.2475 29.689 76.323 29.6896 57.7615C29.6907 39.6786 44.7241 24.7065 62.8862 24.7003ZM48.9358 42.2625C49.238 43.2696 48.3921 43.6201 47.4928 43.6903C46.5463 43.7633 45.6004 43.8347 44.5017 43.9184C48.1281 54.7222 51.6999 65.3659 55.3566 76.2573C55.6172 75.831 55.7245 75.7108 55.7717 75.5703C57.7792 69.5702 59.798 63.574 61.7544 57.5571C61.933 57.0083 61.8443 56.2814 61.6488 55.7175C60.6136 52.7292 59.3733 49.8061 58.4656 46.7819C57.845 44.7115 57.0215 43.3718 54.5742 43.6117C54.1574 43.6527 53.6485 42.7556 53.1817 42.2922C53.7462 41.9552 54.3068 41.3351 54.8764 41.3267C59.8599 41.2501 64.8443 41.2516 69.8278 41.3312C70.3996 41.3407 70.9602 41.9771 71.5247 42.3226C71.0304 42.7742 70.604 43.4516 70.026 43.6263C69.0987 43.906 68.0702 43.8532 66.9603 43.9521L77.8287 76.2837C79.475 70.8149 81.0068 65.7933 82.4964 60.7588C83.8254 56.2646 83.0334 52.0676 80.6304 48.1092C79.9081 46.919 79.0206 45.7641 78.6111 44.466C78.146 42.9893 77.7596 41.3081 78.0062 39.8269C78.4246 37.3167 80.3507 36.0703 82.957 35.8315C68.6942 22.5944 46.2812 27.333 38.0225 41.7154C41.2017 41.5688 44.2371 41.3761 47.2748 41.3345C47.8489 41.3272 48.801 41.8125 48.9358 42.2625ZM54.6185 86.059C54.5523 86.2528 54.5483 86.4685 54.4961 86.7903C60.6428 88.4945 66.671 88.3715 72.8407 86.2927L63.4154 60.4768C60.399 69.2455 57.5062 77.6509 54.6185 86.059ZM49.8688 84.8918L35.6684 45.9377C29.2621 58.4513 34.1355 77.5436 49.8688 84.8918ZM92.7986 59.8612C93.2491 53.9442 91.2079 45.7518 89.4452 44.625C89.2486 46.8016 89.3857 49.2231 88.7611 51.4295C87.2911 56.628 85.4937 61.7361 83.7625 66.8583C81.8808 72.4259 79.9249 77.9682 78.0011 83.5218C87.04 78.1637 92.0072 70.2555 92.7986 59.8612Z" fill="#494949"/>
</svg>
