<svg width="200" height="200" viewBox="0 0 200 200" fill="none" xmlns="http://www.w3.org/2000/svg">
<style>
  @media (prefers-color-scheme: dark) {
    path {
      fill: white;
    }
  }
</style>
<path d="M54.1545 85.141L44.456 106.134H63.8007L54.1545 85.141ZM0 135.64L37.7981 64.5711H70.4586L108.257 135.64H77.3262L71.7692 123.478H36.4875L30.9305 135.64H0Z" fill="black"/>
<path d="M151.926 62.7203C178.453 62.7203 200 70.5464 200 97.4089V102.591C200.104 129.454 178.401 137.227 151.926 137.28C125.399 137.227 103.696 129.454 103.801 102.591V97.4089C103.696 70.4935 125.399 62.7732 151.926 62.7203ZM172.529 100.846V99.1011C172.686 87.5206 163.145 85.4054 151.926 85.2468C140.655 85.4054 131.114 87.5206 131.271 99.1011V100.846C131.114 112.479 140.655 114.595 151.926 114.753C163.145 114.595 172.686 112.479 172.529 100.846Z" fill="black"/>
</svg>
