<?xml version="1.0" standalone="no"?>
<!DOCTYPE svg PUBLIC "-//W3C//DTD SVG 20010904//EN"
 "http://www.w3.org/TR/2001/REC-SVG-20010904/DTD/svg10.dtd">
<svg version="1.0" xmlns="http://www.w3.org/2000/svg"
 width="269.000000pt" height="269.000000pt" viewBox="0 0 269.000000 269.000000"
 preserveAspectRatio="xMidYMid meet">
<metadata>
Created by potrace 1.14, written by Peter Selinger 2001-2017
</metadata>
<g transform="translate(0.000000,269.000000) scale(0.100000,-0.100000)"
fill="#000000" stroke="none">
<path d="M1888 1845 c-2 -2 -25 -5 -53 -9 -234 -29 -387 -147 -430 -334 -21
-87 -13 -282 14 -356 52 -144 167 -230 369 -273 81 -18 339 -24 437 -11 198
25 346 111 409 237 21 42 28 64 42 126 6 26 6 224 1 250 -26 113 -55 168 -124
231 -107 99 -269 143 -530 142 -73 0 -133 -2 -135 -3z m298 -315 c92 -30 126
-78 127 -179 0 -75 -18 -119 -60 -149 -56 -38 -101 -47 -238 -45 -78 1 -111 6
-148 22 -77 33 -98 64 -104 153 -7 89 18 147 77 178 66 36 262 47 346 20z"/>
<path d="M476 1765 c-37 -67 -99 -183 -171 -320 -26 -49 -60 -112 -75 -140
-15 -27 -51 -95 -80 -150 -29 -55 -75 -141 -101 -191 l-49 -92 205 1 c136 0
208 4 213 11 4 6 21 40 37 76 16 36 31 67 33 70 4 6 461 7 471 0 5 -3 24 -39
44 -81 l35 -77 198 1 c110 0 202 2 206 4 4 2 -4 25 -19 51 -71 131 -95 175
-143 267 -29 55 -71 134 -93 175 -90 168 -117 220 -172 325 -32 61 -62 114
-67 120 -5 6 -96 10 -224 10 l-216 1 -32 -61z m283 -287 c16 -35 43 -94 60
-132 18 -38 29 -71 26 -74 -6 -6 -235 -5 -242 1 -3 4 119 267 124 267 2 0 17
-28 32 -62z"/>
</g>
</svg>
